<?xml version="1.0" encoding="UTF-8"?>
<svg width="512" height="512" viewBox="0 0 512 512" fill="none" xmlns="http://www.w3.org/2000/svg">
  <rect width="512" height="512" rx="128" fill="url(#gradient)"/>
  <path d="M384 208C384 199.2 380.8 190.4 374.4 184L342.4 152C336 145.6 327.2 142.4 318.4 142.4C309.6 142.4 300.8 145.6 294.4 152L270.4 176H241.6L217.6 152C211.2 145.6 202.4 142.4 193.6 142.4C184.8 142.4 176 145.6 169.6 152L137.6 184C131.2 190.4 128 199.2 128 208C128 216.8 131.2 225.6 137.6 232L161.6 256V284.8L137.6 308.8C131.2 315.2 128 324 128 332.8C128 341.6 131.2 350.4 137.6 356.8L169.6 388.8C176 395.2 184.8 398.4 193.6 398.4C202.4 398.4 211.2 395.2 217.6 388.8L241.6 364.8H270.4L294.4 388.8C300.8 395.2 309.6 398.4 318.4 398.4C327.2 398.4 336 395.2 342.4 388.8L374.4 356.8C380.8 350.4 384 341.6 384 332.8C384 324 380.8 315.2 374.4 308.8L350.4 284.8V256L374.4 232C380.8 225.6 384 216.8 384 208Z" fill="white"/>
  <circle cx="256" cy="270" r="48" fill="white"/>
  <path d="M288 270C288 287.673 273.673 302 256 302C238.327 302 224 287.673 224 270C224 252.327 238.327 238 256 238C273.673 238 288 252.327 288 270Z" fill="url(#gradient)"/>
  <defs>
    <linearGradient id="gradient" x1="0" y1="0" x2="512" y2="512" gradientUnits="userSpaceOnUse">
      <stop offset="0%" stop-color="#6366f1"/>
      <stop offset="100%" stop-color="#8b5cf6"/>
    </linearGradient>
  </defs>
</svg>